<?xml version="1.0" encoding="utf-8"?>
<!-- Generator: Adobe Illustrator 21.1.0, SVG Export Plug-In . SVG Version: 6.00 Build 0)  -->
<svg version="1.1" id="Layer_1" xmlns="http://www.w3.org/2000/svg" xmlns:xlink="http://www.w3.org/1999/xlink" x="0px" y="0px"
	 viewBox="0 0 337 337" style="enable-background:new 0 0 337 337;" xml:space="preserve">
<style type="text/css">
	.st0{clip-path:url(#SVGID_2_);fill:#F03C3B;}
	.st1{clip-path:url(#SVGID_4_);}
	.st2{fill:#FF8F8E;}
	.st3{fill:#933B40;}
	.st4{fill:#E7E9EE;}
	.st5{fill:#FFFFFF;}
	.st6{clip-path:url(#SVGID_6_);}
	.st7{fill:#FFDFDF;}
	.st8{clip-path:url(#SVGID_8_);}
	.st9{display:none;}
	.st10{display:inline;}
	.st11{display:inline;opacity:0.48;clip-path:url(#SVGID_10_);fill:#EF3B3A;enable-background:new    ;}
</style>
<g>
	<g>
		<defs>
			<circle id="SVGID_1_" cx="168.5" cy="168.5" r="168"/>
		</defs>
		<clipPath id="SVGID_2_">
			<use xlink:href="#SVGID_1_"  style="overflow:visible;"/>
		</clipPath>
		<rect x="-18.1" y="-22.9" class="st0" width="380.5" height="380.5"/>
	</g>
	<g>
		<defs>
			<circle id="SVGID_3_" cx="168.5" cy="168.5" r="168"/>
		</defs>
		<clipPath id="SVGID_4_">
			<use xlink:href="#SVGID_3_"  style="overflow:visible;"/>
		</clipPath>
		<g class="st1">
			<g>
				<path class="st2" d="M121,93.5c0,0,27.7-45,82.2-15.8c58.8,31.5,58.8,77.1,58.8,77.1s16.1,17.6,3,32.7
					c-3.8,4.4-11.2,13.3-1,34.9c3.9,8.2-18.3,14.4-9,30.4c5.5,9.5-15.6,30.8-25.7,35.8L113,287.8c0,0-24.2-13.7-29.7-25.8
					c-2.2-4.9,3.1-13.3,1.7-20.2c-1.2-5.8-13.6-13.3-15-21.4c-1.8-10.4,6.7-18.9-0.4-31.4c-5-8.9,15.1-20.8,12.1-43.9
					C76.7,106.1,100.4,92.1,121,93.5z"/>
				<path class="st3" d="M230,291.3l-117.6-0.8l-0.6-0.3c-1-0.6-25-14.3-30.8-27c-1.5-3.4-0.6-7.3,0.4-11.4c0.8-3.3,1.6-6.6,1-9.4
					c-0.4-1.9-3.1-4.8-5.8-7.6c-3.9-4.1-8.3-8.7-9.2-13.9c-0.8-4.6,0.1-8.8,1.1-12.9c1.3-5.7,2.6-11-1.2-17.7
					c-3-5.3,0.2-10.7,3.9-16.9c4.2-7.1,9.4-16,7.9-28c-3-23.1,4.1-36.1,10.5-43c7.5-7.9,18.4-12.2,30-11.8
					c2.4-3.3,9.2-12.1,20.7-18.4c13.1-7.3,34.9-12.6,64.1,3c31,16.6,45.8,37.2,52.6,51.6c6.3,13.2,7.4,23.6,7.6,26.8
					c6.1,7.1,13.6,22.7,2.4,35.6c-3.6,4.1-10.2,11.7-0.6,32c2.4,5-1.5,9.1-4.8,12.8c-4.5,5-8.8,9.6-4.3,17.5
					c1.5,2.6,1.7,5.8,0.5,9.5c-3.4,11.2-19,26-27.4,30.1L230,291.3z M113.8,285.1l114.9,0.8c7.6-4,21.2-17.3,24-26.5
					c0.7-2.2,0.7-4,0-5.2c-6.5-11.3,0.4-18.8,5-23.8c3.2-3.5,4.6-5.3,3.9-6.8c-11.1-23.5-2.3-33.5,1.4-37.9
					c11.4-13.1-2.4-28.5-3-29.1l-0.7-0.8v-1.1c0-0.1-0.1-11.2-7.2-25.8c-6.6-13.5-20.6-33-50.2-48.9c-21.7-11.6-41.4-12.7-58.7-3.2
					c-13,7.1-19.8,17.9-19.9,18l-0.9,1.4l-1.6-0.1c-10.7-0.8-20.6,2.9-27.3,10c-8.1,8.6-11.3,21.9-9.1,38.6
					c1.8,13.9-4.2,24-8.6,31.4c-3.4,5.7-5.2,9.1-3.8,11.5c4.8,8.5,3.2,15.4,1.7,21.6c-0.9,3.7-1.7,7.1-1,10.7
					c0.6,3.6,4.4,7.6,7.8,11.1c3.3,3.5,6.5,6.8,7.2,10.2c0.8,4-0.2,8.1-1.1,11.8c-0.7,3-1.5,6.2-0.8,7.9
					C90.4,271,110.1,282.9,113.8,285.1z"/>
			</g>
			<g>
				<path class="st4" d="M91.7,348.4v-24.2c0-27.4,37.3-49.8,63.5-49.8h33.4c26.2,0,63.1,22.4,63.1,49.8v24.2H91.7z"/>
				<path class="st3" d="M254.6,351.3H88.9v-27c0-13.5,8.2-26.8,23.1-37.5c13.1-9.3,29.6-15.1,43.2-15.1h33.4
					c13.6,0,30.1,5.8,43.1,15.2c14.8,10.7,22.9,24,22.9,37.5V351.3z M94.6,345.6h154.3v-21.3c0-11.4-7.5-23.4-20.5-32.8
					c-12-8.7-27.3-14.1-39.7-14.1h-33.4c-24,0-60.7,21-60.7,46.9C94.6,324.3,94.6,345.6,94.6,345.6z"/>
			</g>
			<g>
				<path class="st5" d="M109.7,214.9L109.7,214.9c-6.8,0-12.4-5.6-12.4-12.4v-10.3c0-6.8,5.6-12.4,12.4-12.4l0,0
					c6.8,0,12.4,5.6,12.4,12.4v10.3C122,209.3,116.5,214.9,109.7,214.9z"/>
				<path class="st3" d="M109.7,217.8c-8.4,0-15.3-6.9-15.3-15.3v-10.3c0-8.4,6.9-15.3,15.3-15.3s15.3,6.9,15.3,15.3v10.3
					C124.9,210.9,118.1,217.8,109.7,217.8z M109.7,182.7c-5.2,0-9.5,4.2-9.5,9.5v10.3c0,5.2,4.2,9.5,9.5,9.5c5.2,0,9.5-4.2,9.5-9.5
					v-10.3C119.1,186.9,114.9,182.7,109.7,182.7z"/>
			</g>
			<g>
				<path class="st5" d="M226.9,214.9L226.9,214.9c-6.8,0-12.4-5.6-12.4-12.4v-10.3c0-6.8,5.6-12.4,12.4-12.4l0,0
					c6.8,0,12.4,5.6,12.4,12.4v10.3C239.2,209.3,233.7,214.9,226.9,214.9z"/>
				<path class="st3" d="M226.9,217.8c-8.4,0-15.3-6.9-15.3-15.3v-10.3c0-8.4,6.9-15.3,15.3-15.3c8.4,0,15.3,6.9,15.3,15.3v10.3
					C242.2,210.9,235.3,217.8,226.9,217.8z M226.9,182.7c-5.2,0-9.5,4.2-9.5,9.5v10.3c0,5.2,4.2,9.5,9.5,9.5c5.2,0,9.5-4.2,9.5-9.5
					v-10.3C236.3,186.9,232.1,182.7,226.9,182.7z"/>
			</g>
			<g>
				<path class="st5" d="M185.9,288.8c0,7.6-8.4,5.6-17.4,5.3c-8.4-0.2-17.5,1.8-17.5-5.3v-59h34.9V288.8z"/>
				<path class="st3" d="M177.8,297.3c-1.6,0-3.3-0.1-5.1-0.2c-1.4-0.1-2.9-0.2-4.3-0.2c-1.6,0-3.3,0-4.9,0
					c-5.3,0.1-10.2,0.3-13.1-2.6c-1.4-1.4-2.1-3.3-2.1-5.6v-61.8h40.4v61.8c0,2.6-0.8,4.6-2.3,6.1
					C184.3,296.8,181.3,297.3,177.8,297.3z M167.1,291.4c0.5,0,1,0,1.5,0c1.5,0,3,0.1,4.5,0.2c3.8,0.2,8.2,0.5,9.5-0.7
					c0.1-0.1,0.6-0.5,0.6-2.1v-56.2h-29.3v56.2c0,1.2,0.4,1.5,0.5,1.6c1.2,1.2,5.4,1.1,9.1,1C164.6,291.4,165.8,291.4,167.1,291.4z"
					/>
			</g>
			<g>
				<path class="st5" d="M168.3,262.6L168.3,262.6c-32.2,0-58.6-26.4-58.6-58.6v-47.5c0-32.2,26.4-58.6,58.6-58.6l0,0
					c32.2,0,58.6,26.4,58.6,58.6V204C226.9,236.3,200.5,262.6,168.3,262.6z"/>
				<path class="st3" d="M168.3,265.5c-33.9,0-61.5-27.6-61.5-61.5v-47.5c0-33.9,27.6-61.5,61.5-61.5s61.5,27.6,61.5,61.5V204
					C229.8,238,202.2,265.5,168.3,265.5z M168.3,100.8c-30.7,0-55.7,25-55.7,55.7V204c0,30.7,25,55.7,55.7,55.7s55.7-25,55.7-55.7
					v-47.5C224,125.8,199,100.8,168.3,100.8z"/>
			</g>
			<g>
				<g>
					<circle class="st3" cx="138.3" cy="185.2" r="5.9"/>
				</g>
			</g>
			<g>
				<g>
					<path class="st3" d="M162.2,206.1c1.4,2.8,4.2,4.2,7.3,3.9c2.8-0.3,4.3-2,5.4-4.4c0.9-2.1-2.1-3.9-3.1-1.8
						c-0.5,1.2-1,2.4-2.4,2.7c-1.9,0.4-3.4-0.5-4.2-2.2C164.2,202.3,161.1,204.1,162.2,206.1L162.2,206.1z"/>
				</g>
			</g>
			<g>
				<rect x="154" y="251.5" class="st5" width="29.2" height="23"/>
			</g>
			<g>
				<g>
					<circle class="st3" cx="198.5" cy="185.6" r="5.9"/>
				</g>
			</g>
			<g>
				<g>
					<path class="st3" d="M146.8,174.5h-23.1c-1.1,0-2-0.9-2-2l0,0c0-1.1,0.9-2,2-2h23.1c1.1,0,2,0.9,2,2l0,0
						C148.8,173.6,147.9,174.5,146.8,174.5z"/>
				</g>
			</g>
			<g>
				<path class="st3" d="M211,174.5h-23.1c-1.1,0-2-0.9-2-2l0,0c0-1.1,0.9-2,2-2H211c1.1,0,2,0.9,2,2l0,0
					C213,173.6,212.1,174.5,211,174.5z"/>
			</g>
			<g>
				<path class="st2" d="M104,176.6c0,0,18.7-13.6,39.1-66.3c0,0-11.1,36.3,98.2,75.3c0,0,6.3-36.1,6-36.7
					c-0.3-0.6-33.3-52-34.3-52.6c-1-0.7-49.3-19-49.3-19l-35.3,25l-36.7,53L104,176.6z"/>
				<path class="st3" d="M243.5,189.4l-3.1-1.1c-73.9-26.3-93.9-51.9-98.9-66.5c-18.7,44.3-35.1,56.6-35.8,57.1l-2.5,1.8l-14.7-25.6
					l38-54.9L163.4,74l1.4,0.5c48.6,18.4,49.5,19.1,49.8,19.3c0.7,0.5,1.1,0.8,18.2,27.1c6.9,10.6,16.7,25.9,17,26.5
					c0.6,1.1,0.8,1.5-5.7,38.5L243.5,189.4z M140.4,109.2l5.3,1.8c-0.1,0.3-7.9,33.9,93.3,70.7c2.1-12,4.9-28.4,5.3-32.2
					c-4-6.3-29.8-46.3-33.2-51.1c-4-1.7-29.4-11.4-47.1-18.1l-33.6,23.8L95,155.2l9.6,16.8C110.3,166.6,124.9,149.5,140.4,109.2z"/>
			</g>
			<g>
				<g>
					<g>
						<path class="st2" d="M101.8,179.2c0,0,2.5-4.3,9.5-17s31.8-60,31.8-60l12.6-2.7l58.9,46.3l22.9,34.5l7.8,13.2
							c0,0,9.5-19.7,8.8-22.7s0.6-23.7-2.2-28.7s-12.5-20.3-14.1-23c-1.7-2.7-13-17.3-14-18s-11-12.3-11-12.3L188,79.1l-14.5-5.3
							l-12.1-2l-28,18l-31.8,36.3l-13.5,24l-2.3,11.3L101.8,179.2z"/>
					</g>
				</g>
			</g>
			<g>
				<polygon class="st5" points="194.3,265.5 168.5,292.3 182.5,320.2 215.5,279.6 				"/>
				<path class="st3" d="M182,325.6l-17-33.8l28.9-30l25.8,17.3L182,325.6z M172.1,292.8l11.1,22.1l28.1-34.6l-16.4-11L172.1,292.8z
					"/>
			</g>
			<g>
				<polygon class="st5" points="142.7,265.5 168.5,292.3 154.5,320.2 121.6,279.6 				"/>
				<path class="st3" d="M155.1,325.6L117.3,279l25.8-17.3l28.9,30L155.1,325.6z M125.9,280.3l28.1,34.6l11.1-22.1l-22.7-23.6
					L125.9,280.3z"/>
			</g>
			<g>
				<path class="st5" d="M146.6,224.7c0.7-0.8,43.5-2,43.4,0c0,0-4.2,18.1-21.7,17.1C150.8,240.7,146.6,224.7,146.6,224.7z"/>
				<path class="st3" d="M169.7,243.9c-0.5,0-1,0-1.5,0c-18.8-1.1-23.6-18.4-23.6-18.6l-0.3-1.1l0.8-0.8c0.6-0.6,1.2-1.3,21.9-1.7
					c13.6-0.2,21.6,0.1,23.6,0.9c1.5,0.7,1.6,1.9,1.6,2.3l-0.1,0.4C192,225.3,187.4,243.9,169.7,243.9z M149.4,226.4
					c1.8,4.1,6.9,12.6,19,13.2c12.5,0.7,17.4-9.3,19-13.6C180.6,225.3,157,225.8,149.4,226.4z"/>
			</g>
			<g>
				<g>
					<path class="st3" d="M149.5,202.5h-21.8c-6,0-10.9-4.9-10.9-10.9v-5.9c0-6,4.9-10.9,10.9-10.9h21.8c6,0,10.9,4.9,10.9,10.9v5.9
						C160.3,197.7,155.5,202.5,149.5,202.5z M127.7,179.7c-3.3,0-6,2.7-6,6v5.9c0,3.3,2.7,6,6,6h21.8c3.3,0,6-2.7,6-6v-5.9
						c0-3.3-2.7-6-6-6H127.7z"/>
				</g>
				<g>
					<path class="st3" d="M210.3,202.5h-21.8c-6,0-10.9-4.9-10.9-10.9v-5.9c0-6,4.9-10.9,10.9-10.9h21.8c6,0,10.9,4.9,10.9,10.9v5.9
						C221.1,197.7,216.3,202.5,210.3,202.5z M188.5,179.7c-3.3,0-6,2.7-6,6v5.9c0,3.3,2.7,6,6,6h21.8c3.3,0,6-2.7,6-6v-5.9
						c0-3.3-2.7-6-6-6H188.5z"/>
				</g>
				<g>
					<g>
						<path class="st3" d="M181.7,180.1h-27.6c-1.2,0-2.3-1-2.3-2.3l0,0c0-1.2,1-2.3,2.3-2.3h27.6c1.2,0,2.3,1,2.3,2.3l0,0
							C184,179.1,183,180.1,181.7,180.1z"/>
					</g>
				</g>
			</g>
		</g>
	</g>
	<g>
		<defs>
			<circle id="SVGID_5_" cx="168.5" cy="168.5" r="168"/>
		</defs>
		<clipPath id="SVGID_6_">
			<use xlink:href="#SVGID_5_"  style="overflow:visible;"/>
		</clipPath>
		<g class="st6">
			<path class="st7" d="M96.3,370c-5.2,0-9.5-4.3-9.5-9.5v-64c0-5.2,4.3-9.5,9.5-9.5h144.5c5.2,0,9.5,4.3,9.5,9.5v64
				c0,5.2-4.3,9.5-9.5,9.5H96.3z"/>
			<path class="st3" d="M240.8,289.5c3.9,0,7,3.1,7,7v64c0,3.9-3.1,7-7,7H96.3c-3.9,0-7-3.1-7-7v-64c0-3.9,3.1-7,7-7H240.8
				 M240.8,284.5H96.3c-6.6,0-12,5.4-12,12v64c0,6.6,5.4,12,12,12h144.5c6.6,0,12-5.4,12-12v-64
				C252.8,289.9,247.4,284.5,240.8,284.5L240.8,284.5z"/>
		</g>
	</g>
	<g>
		<defs>
			<circle id="SVGID_7_" cx="168.5" cy="168.5" r="168"/>
		</defs>
		<clipPath id="SVGID_8_">
			<use xlink:href="#SVGID_7_"  style="overflow:visible;"/>
		</clipPath>
		<g class="st8">
			<circle class="st7" cx="169" cy="321.5" r="6.5"/>
			<path class="st3" d="M169,317.5c2.2,0,4,1.8,4,4s-1.8,4-4,4s-4-1.8-4-4S166.8,317.5,169,317.5 M169,312.5c-5,0-9,4-9,9s4,9,9,9
				s9-4,9-9S174,312.5,169,312.5L169,312.5z"/>
		</g>
	</g>
	<g class="st9">
		<defs>
			<circle id="SVGID_9_" cx="168.5" cy="168.5" r="168"/>
		</defs>
		<clipPath id="SVGID_10_" class="st10">
			<use xlink:href="#SVGID_9_"  style="overflow:visible;"/>
		</clipPath>
		<rect x="-25.5" y="-20.6" class="st11" width="380.5" height="380.5"/>
	</g>
</g>
</svg>
