<?xml version="1.0" encoding="utf-8"?>
<!-- Generator: Adobe Illustrator 21.1.0, SVG Export Plug-In . SVG Version: 6.00 Build 0)  -->
<svg version="1.1" id="Layer_1" xmlns="http://www.w3.org/2000/svg" xmlns:xlink="http://www.w3.org/1999/xlink" x="0px" y="0px"
	 viewBox="0 0 337 337" style="enable-background:new 0 0 337 337;" xml:space="preserve">
<style type="text/css">
	.st0{clip-path:url(#SVGID_2_);fill:#6CD5E3;}
	.st1{clip-path:url(#SVGID_4_);}
	.st2{fill:#27909E;}
	.st3{fill:#326370;}
	.st4{fill:#C3F8FF;}
	.st5{fill:#FFFFFF;}
	.st6{fill:#56545F;}
	.st7{display:none;}
	.st8{display:inline;}
	.st9{display:inline;opacity:0.48;clip-path:url(#SVGID_6_);fill:#046D7B;enable-background:new    ;}
</style>
<g>
	<g>
		<defs>
			<circle id="SVGID_1_" cx="168.5" cy="168.5" r="168"/>
		</defs>
		<clipPath id="SVGID_2_">
			<use xlink:href="#SVGID_1_"  style="overflow:visible;"/>
		</clipPath>
		<rect x="-14.9" y="-8.2" class="st0" width="380.5" height="380.5"/>
	</g>
	<g>
		<defs>
			<circle id="SVGID_3_" cx="168.5" cy="168.5" r="168"/>
		</defs>
		<clipPath id="SVGID_4_">
			<use xlink:href="#SVGID_3_"  style="overflow:visible;"/>
		</clipPath>
		<g class="st1">
			<g>
				
					<ellipse transform="matrix(0.3797 -0.9251 0.9251 0.3797 -155.3865 274.3655)" class="st2" cx="126.9" cy="253.1" rx="44.3" ry="23.3"/>
				<path class="st3" d="M115,297.9c-2.1,0-4.1-0.4-6.1-1.2c-6.8-2.8-11.1-10.1-12.1-20.6c-0.9-9.9,1.1-21.6,5.8-32.9
					c4.7-11.4,11.4-21.1,19-27.5c8.1-6.8,16.3-9,23.1-6.2s11.1,10.1,12.1,20.6c0.9,9.9-1.1,21.6-5.8,32.9
					c-4.7,11.4-11.4,21.1-19,27.5C126.2,295.4,120.4,297.9,115,297.9z M138.7,213.9c-4,0-8.6,2.1-13.4,6.1
					c-6.9,5.8-13.1,14.8-17.4,25.3s-6.2,21.3-5.4,30.3c0.8,8.3,3.8,14,8.6,15.9s10.9,0.1,17.3-5.3c6.9-5.8,13.1-14.8,17.4-25.3
					c4.3-10.5,6.2-21.3,5.4-30.3c-0.8-8.3-3.8-14-8.6-15.9C141.4,214.2,140.1,213.9,138.7,213.9z"/>
			</g>
			<g>
				<g>
					<path class="st4" d="M110.9,287.1c0,0-15.9-27.6,35.1-31.7l25.9-3.7l-5.8,30.8L110.9,287.1z"/>
					<path class="st3" d="M109.3,290.1l-0.9-1.6c-0.2-0.4-5.6-10-0.6-19.5c4.9-9.3,17.6-14.8,37.8-16.4l29.7-4.3l-7,36.9
						L109.3,290.1z M168.3,255.1l-22.1,3.2c-17.9,1.4-29.4,6.1-33.3,13.4c-2.6,4.8-1.2,10-0.3,12.5l50.9-4.3L168.3,255.1z"/>
				</g>
				<g>
					<path class="st4" d="M222.9,287.1c0,0,15.9-27.6-35.1-31.7l-25.9-3.7l5.8,30.8L222.9,287.1z"/>
					<path class="st3" d="M224.5,290.1l-59.1-4.9l-7-36.9l29.7,4.3c20.2,1.6,32.9,7.2,37.8,16.4c5,9.5-0.4,19.1-0.6,19.5
						L224.5,290.1z M170.2,279.9l50.9,4.3c1-2.5,2.3-7.6-0.3-12.5c-3.9-7.3-15.4-11.9-33.3-13.4h-0.2l-21.9-3.2L170.2,279.9z"/>
				</g>
				<g>
					<path class="st4" d="M89.5,346.1v-24.2c0-27.4,37.3-49.8,63.5-49.8h33.4c26.2,0,63.1,22.4,63.1,49.8v24.2H89.5z"/>
					<path class="st3" d="M252.4,348.9H86.6v-27c0-13.5,8.2-26.8,23.1-37.5c13.1-9.3,29.6-15.1,43.2-15.1h33.4
						c13.6,0,30.1,5.8,43.1,15.2c14.8,10.7,22.9,24,22.9,37.5v26.9H252.4z M92.3,343.2h154.3v-21.3c0-11.4-7.5-23.4-20.5-32.8
						c-12-8.7-27.3-14.1-39.7-14.1H153c-24,0-60.7,21-60.7,46.9V343.2z"/>
				</g>
				<g>
					<path class="st5" d="M141.1,275.7c0,0-3.1,32.3,28.8,32.3c32,0,28.8-34,28.8-34S172.7,267,141.1,275.7z"/>
					<path class="st3" d="M169.9,309.9c-9.9,0-17.6-3-22.9-8.8c-9.1-10.1-7.8-24.9-7.8-25.5l0.1-1.3l1.2-0.3
						c31.7-8.8,57.6-2,58.6-1.7l1.2,0.3l0.1,1.3c0.1,0.7,1.4,16.7-8.2,27.3C187.1,307,179.5,309.9,169.9,309.9z M142.9,277.2
						c-0.1,3.6,0.3,14.2,6.9,21.4c4.6,5,11.4,7.6,20.2,7.6c8.5,0,15.2-2.5,19.7-7.6c7-7.7,7.4-19.2,7.3-23.1
						C191.5,274.3,169.1,270.2,142.9,277.2z"/>
				</g>
				<g>
					<rect x="166.3" y="308.1" class="st5" width="7.3" height="37.3"/>
					<path class="st3" d="M175.7,347.4h-11.5v-41.5h11.5V347.4z M168.4,343.2h3v-33h-3V343.2z"/>
				</g>
				<g>
					<g>
						<polygon class="st3" points="191.3,330.5 182.1,330.5 182.1,305.6 191.3,302.1 						"/>
					</g>
				</g>
				<g>
					<g>
						<polygon class="st3" points="149.1,330.5 158.3,330.5 158.3,305.6 149.1,302.1 						"/>
					</g>
				</g>
				<g>
					<g>
						<path class="st4" d="M200.5,262.8l0.3,20.9c0,0,7.1,2.9,8.6,4c1.5,1,10.2,5.1,10.4,4.6s2.3-12.5,2.3-12.5L210.3,265
							L200.5,262.8z"/>
					</g>
				</g>
				<g>
					<path class="st5" d="M186.7,286.4c0,14.7-34.9,14.7-34.9,0v-59h34.9L186.7,286.4L186.7,286.4z"/>
					<path class="st3" d="M169.2,300.3c-9.7,0-20.2-4.3-20.2-13.8v-61.8h40.4v61.8C189.4,295.9,179,300.3,169.2,300.3z M154.6,230.2
						v56.2c0,5.4,7.4,8.3,14.7,8.3s14.7-2.8,14.7-8.3v-56.2H154.6z"/>
				</g>
			</g>
			<g>
				<path class="st5" d="M110.4,211.7L110.4,211.7c-6.8,0-12.4-5.6-12.4-12.4V189c0-6.8,5.6-12.4,12.4-12.4l0,0
					c6.8,0,12.4,5.6,12.4,12.4v10.3C122.8,206.2,117.2,211.7,110.4,211.7z"/>
				<path class="st3" d="M110.4,214.6c-8.4,0-15.3-6.9-15.3-15.3V189c0-8.4,6.9-15.3,15.3-15.3s15.3,6.9,15.3,15.3v10.3
					C125.7,207.8,118.8,214.6,110.4,214.6z M110.4,179.5c-5.2,0-9.5,4.2-9.5,9.5v10.3c0,5.2,4.2,9.5,9.5,9.5c5.2,0,9.5-4.2,9.5-9.5
					V189C119.9,183.8,115.6,179.5,110.4,179.5z"/>
			</g>
			<g>
				<path class="st5" d="M227.6,211.7L227.6,211.7c-6.8,0-12.4-5.6-12.4-12.4V189c0-6.8,5.6-12.4,12.4-12.4l0,0
					c6.8,0,12.4,5.6,12.4,12.4v10.3C240,206.2,234.4,211.7,227.6,211.7z"/>
				<path class="st3" d="M227.6,214.6c-8.4,0-15.3-6.9-15.3-15.3V189c0-8.4,6.9-15.3,15.3-15.3c8.4,0,15.3,6.9,15.3,15.3v10.3
					C242.9,207.8,236,214.6,227.6,214.6z M227.6,179.5c-5.2,0-9.5,4.2-9.5,9.5v10.3c0,5.2,4.2,9.5,9.5,9.5c5.2,0,9.5-4.2,9.5-9.5
					V189C237.1,183.8,232.8,179.5,227.6,179.5z"/>
			</g>
			<g>
				<path class="st5" d="M169,259.5L169,259.5c-32.2,0-58.6-26.4-58.6-58.6v-47.5c0-32.2,26.4-58.6,58.6-58.6l0,0
					c32.2,0,58.6,26.4,58.6,58.6v47.5C227.6,233.1,201.2,259.5,169,259.5z"/>
				<path class="st3" d="M169,262.4c-33.9,0-61.5-27.6-61.5-61.5v-47.5c0-33.9,27.6-61.5,61.5-61.5s61.5,27.6,61.5,61.5v47.5
					C230.5,234.8,202.9,262.4,169,262.4z M169,97.7c-30.7,0-55.7,25-55.7,55.7v47.5c0,30.7,25,55.7,55.7,55.7s55.7-25,55.7-55.7
					v-47.5C224.7,122.7,199.7,97.7,169,97.7z"/>
			</g>
			<g>
				<g>
					<circle class="st3" cx="139" cy="182" r="5.9"/>
				</g>
			</g>
			<g>
				<g>
					<path class="st3" d="M162.9,203c1.4,2.8,4.2,4.2,7.3,3.9c2.8-0.3,4.3-2,5.4-4.4c0.9-2.1-2.1-3.9-3.1-1.8
						c-0.5,1.2-1,2.4-2.4,2.7c-1.9,0.4-3.4-0.5-4.2-2.2C164.9,199.1,161.9,200.9,162.9,203L162.9,203z"/>
				</g>
			</g>
			<g>
				<rect x="154.6" y="248.3" class="st5" width="29.3" height="23"/>
			</g>
			<g>
				<path class="st3" d="M151.2,222.9c0,0,6.9-1,15.8-3.3l3.2,1.7l3.9-1.5c0,0,7.2,2.4,14.6,3.5c0,0-6.3,13.1-18.5,13.7
					C156.7,237.8,151.2,222.9,151.2,222.9z"/>
			</g>
			<g>
				<circle class="st3" cx="199.2" cy="182.4" r="5.9"/>
			</g>
			<g>
				<g>
					<path class="st3" d="M147.6,168.1h-23.1c-1.1,0-2-0.9-2-2l0,0c0-1.1,0.9-2,2-2h23.1c1.1,0,2,0.9,2,2l0,0
						C149.6,167.2,148.7,168.1,147.6,168.1z"/>
				</g>
			</g>
			<g>
				<path class="st6" d="M209.2,168.1h-23.1c-1.1,0-2-0.9-2-2l0,0c0-1.1,0.9-2,2-2h23.1c1.1,0,2,0.9,2,2l0,0
					C211.2,167.2,210.3,168.1,209.2,168.1z"/>
			</g>
			<g>
				<path class="st5" d="M153.7,224.7c0,0,6.1,0.4,14.4,0.6s18.6-0.3,18.6-0.3s-8.3,6.9-16.5,6.9
					C161.9,231.9,153.7,224.7,153.7,224.7z"/>
			</g>
			<g>
				<path class="st2" d="M145.5,115.2c0,0-5.8,55.4-41.6,64.9c0,0-29.5-72.7,28.9-88.3C150.7,87,145.5,115.2,145.5,115.2z"/>
				<path class="st3" d="M102.3,183.3l-0.9-2.2c-0.6-1.6-15.7-39.3-1.9-67c6.2-12.4,17.1-20.7,32.5-24.9c5-1.3,9-0.6,11.9,2.1
					c7,6.5,4.5,22,4.1,24.2c-0.4,3.5-6.9,57.4-43.6,67.1L102.3,183.3z M136.6,93.9c-0.9,0-2,0.2-3.1,0.5
					c-13.9,3.7-23.7,11.2-29.2,22.1c-10.9,21.9-1.7,52,1.2,60.4c31.6-10.7,37.3-61.4,37.4-62v-0.2c0.7-4.1,1.8-15.5-2.5-19.5
					C139.4,94.4,138.2,93.9,136.6,93.9z"/>
			</g>
			<g>
				<path class="st2" d="M138.5,98.9c0,0-13.9,57.1,94.3,86.8C264.7,91.2,162.1,57.9,138.5,98.9z"/>
				<path class="st3" d="M234.5,188.9l-2.4-0.7c-45.6-12.5-75.6-31.3-89.3-55.8c-10.4-18.7-7-33.5-6.8-34.2l0.1-0.4l0.2-0.3
					c10.8-18.7,38.2-24,63.8-12.4c27.8,12.6,53.7,46.7,35.2,101.4L234.5,188.9z M141,99.8c-0.4,2.2-2.2,14.9,6.6,30.4
					c8.9,15.6,30.5,37.2,83.4,52.2c15.8-50-7.8-81-33.2-92.5C174.9,79.6,150.6,83.8,141,99.8z"/>
			</g>
			<g>
				<path class="st2" d="M101.6,160.9l-2.5-20.6l37.1-46.1c0,0,21.2-5,22.2-5c0.9,0,43.1,7.2,43.1,7.2l20.6,18.3l14.4,32.7
					l-1.3,17.7l-33.9-7L177.2,137l-22-15.8L134,131.6l-14,7.3L101.6,160.9z"/>
			</g>
			<g>
				<path class="st4" d="M139.4,265.7l-0.4,17.6c0,0-13,6.2-14.5,7.3c-1.5,1-8.1,3.4-8.3,2.9c-0.2-0.5-4-10.9-4-10.9l11.5-14.7
					L139.4,265.7z"/>
			</g>
		</g>
	</g>
	<g class="st7">
		<defs>
			<circle id="SVGID_5_" cx="168.5" cy="168.5" r="168"/>
		</defs>
		<clipPath id="SVGID_6_" class="st8">
			<use xlink:href="#SVGID_5_"  style="overflow:visible;"/>
		</clipPath>
		<rect x="-27" y="-21.2" class="st9" width="380.5" height="380.5"/>
	</g>
</g>
</svg>
