<?xml version="1.0" encoding="utf-8"?>
<!-- Generator: Adobe Illustrator 21.1.0, SVG Export Plug-In . SVG Version: 6.00 Build 0)  -->
<svg version="1.1" id="Layer_1" xmlns="http://www.w3.org/2000/svg" xmlns:xlink="http://www.w3.org/1999/xlink" x="0px" y="0px"
	 viewBox="0 0 337 337" style="enable-background:new 0 0 337 337;" xml:space="preserve">
<style type="text/css">
	.st0{clip-path:url(#SVGID_2_);fill:#E5D50E;}
	.st1{clip-path:url(#SVGID_4_);}
	.st2{fill:#FFF46F;}
	.st3{fill:#655E00;}
	.st4{fill:#FFFFFF;}
	.st5{fill:#D1C100;}
	.st6{display:none;}
	.st7{display:inline;}
	.st8{display:inline;clip-path:url(#SVGID_6_);fill:#EFDF18;enable-background:new    ;}
</style>
<g>
	<g>
		<defs>
			<circle id="SVGID_1_" cx="168.5" cy="168.5" r="168"/>
		</defs>
		<clipPath id="SVGID_2_">
			<use xlink:href="#SVGID_1_"  style="overflow:visible;"/>
		</clipPath>
		<rect x="-18.1" y="-14.6" class="st0" width="380.5" height="380.5"/>
	</g>
	<g>
		<defs>
			<circle id="SVGID_3_" cx="168.5" cy="168.5" r="168"/>
		</defs>
		<clipPath id="SVGID_4_">
			<use xlink:href="#SVGID_3_"  style="overflow:visible;"/>
		</clipPath>
		<g class="st1">
			<g>
				<ellipse class="st2" cx="167" cy="89.4" rx="44.3" ry="23.3"/>
				<path class="st3" d="M167,115.5c-26.5,0-47.2-11.5-47.2-26.2s20.7-26.2,47.2-26.2s47.2,11.5,47.2,26.2S193.5,115.5,167,115.5z
					 M167,68.9c-22.5,0-41.5,9.4-41.5,20.5s19,20.5,41.5,20.5s41.5-9.4,41.5-20.5S189.5,68.9,167,68.9z"/>
			</g>
			<g>
				<path class="st2" d="M90.5,352.4v-24.2c0-27.4,37.3-49.8,63.5-49.8h33.4c26.2,0,63.1,22.4,63.1,49.8v24.2H90.5z"/>
				<path class="st3" d="M253.3,355.2H87.6v-27c0-13.5,8.2-26.8,23.1-37.5c13.1-9.3,29.6-15.1,43.2-15.1h33.4
					c13.6,0,30.1,5.8,43.1,15.2c14.8,10.7,22.9,24,22.9,37.5L253.3,355.2L253.3,355.2z M93.3,349.5h154.3v-21.3
					c0-11.4-7.5-23.4-20.5-32.8c-12-8.7-27.3-14.1-39.7-14.1H154c-24,0-60.7,21-60.7,46.9V349.5z"/>
			</g>
			<g>
				<path class="st4" d="M108.4,218.8L108.4,218.8c-6.8,0-12.4-5.6-12.4-12.4v-10.3c0-6.8,5.6-12.4,12.4-12.4l0,0
					c6.8,0,12.4,5.6,12.4,12.4v10.3C120.8,213.2,115.2,218.8,108.4,218.8z"/>
				<path class="st3" d="M108.4,221.7c-8.4,0-15.3-6.9-15.3-15.3v-10.3c0-8.4,6.9-15.3,15.3-15.3s15.3,6.9,15.3,15.3v10.3
					C123.7,214.9,116.8,221.7,108.4,221.7z M108.4,186.6c-5.2,0-9.5,4.2-9.5,9.5v10.3c0,5.2,4.2,9.5,9.5,9.5c5.2,0,9.5-4.2,9.5-9.5
					v-10.3C117.9,190.9,113.6,186.6,108.4,186.6z"/>
			</g>
			<g>
				<path class="st4" d="M225.6,218.8L225.6,218.8c-6.8,0-12.4-5.6-12.4-12.4v-10.3c0-6.8,5.6-12.4,12.4-12.4l0,0
					c6.8,0,12.4,5.6,12.4,12.4v10.3C238,213.2,232.4,218.8,225.6,218.8z"/>
				<path class="st3" d="M225.6,221.7c-8.4,0-15.3-6.9-15.3-15.3v-10.3c0-8.4,6.9-15.3,15.3-15.3c8.4,0,15.3,6.9,15.3,15.3v10.3
					C240.9,214.9,234,221.7,225.6,221.7z M225.6,186.6c-5.2,0-9.5,4.2-9.5,9.5v10.3c0,5.2,4.2,9.5,9.5,9.5c5.2,0,9.5-4.2,9.5-9.5
					v-10.3C235.1,190.9,230.8,186.6,225.6,186.6z"/>
			</g>
			<path class="st3" d="M168.1,329c-0.1,0-0.1,0-0.2,0c-11.7-0.3-20.8-35-20.8-41.3V226h40.4v61.8c0,6.3-5.4,30.7-13.5,38.5
				C172.1,328.1,170.1,329,168.1,329z"/>
			<path class="st4" d="M181.9,231.5v56.2c0,6.5-5.6,28.5-11.8,34.6c-0.8,0.8-1.5,1.2-2.1,1.2c-1.3,0-5-3.2-9.7-14.9
				c-3.3-8.4-5.7-17.7-5.7-20.8v-56.2h29.3V231.5z"/>
			<g>
				<path class="st4" d="M167,266.6L167,266.6c-32.2,0-58.6-26.4-58.6-58.6v-47.5c0-32.2,26.4-58.6,58.6-58.6l0,0
					c32.2,0,58.6,26.4,58.6,58.6V208C225.6,240.2,199.2,266.6,167,266.6z"/>
				<path class="st3" d="M167,269.5c-33.9,0-61.5-27.6-61.5-61.5v-47.5c0-33.9,27.6-61.5,61.5-61.5s61.5,27.6,61.5,61.5V208
					C228.5,241.9,200.9,269.5,167,269.5z M167,104.8c-30.7,0-55.7,25-55.7,55.7V208c0,30.7,25,55.7,55.7,55.7s55.7-25,55.7-55.7
					v-47.5C222.7,129.8,197.7,104.8,167,104.8z"/>
			</g>
			<g>
				<g>
					<path class="st3" d="M160.9,210c1.4,2.8,4.2,4.2,7.3,3.9c2.8-0.3,4.3-2,5.4-4.4c0.9-2.1-2.1-3.9-3.1-1.8
						c-0.5,1.2-1,2.4-2.4,2.7c-1.9,0.4-3.4-0.5-4.2-2.2C162.9,206.2,159.9,208,160.9,210L160.9,210z"/>
				</g>
			</g>
			<g>
				<rect x="152.7" y="255.4" class="st4" width="29.2" height="23"/>
			</g>
			<g>
				<path class="st5" d="M131.1,282.5c-21.8,7.4-43.2,25.2-43.1,45.9l0.1,24.1h53.4L131.1,282.5z"/>
				<path class="st3" d="M144.9,355.3H85.2l-0.1-27c-0.1-22.9,22.3-40.2,44.1-47.5l4.5-1L144.9,355.3z M91,349.5h47.2l-9.4-63
					c-19.4,7.6-37.9,23.8-37.9,41.9L91,349.5z"/>
			</g>
			<g>
				<path class="st5" d="M206.9,282.5c21.9,7.4,43.4,25.2,43.5,45.9l0.1,24.1h-51.8L206.9,282.5z"/>
				<path class="st3" d="M253.4,355.3h-57.9l9-76.7l3.4,1.2c21.8,7.4,45.4,25.7,45.5,48.6V355.3z M202,349.5h45.6l-0.1-21.1
					c-0.1-18.1-18.7-34.3-38.1-41.9L202,349.5z"/>
			</g>
			<g>
				<path class="st2" d="M165.9,90.8c-3.7-0.1-7.6-0.1-11.6-0.1c-52.6,0-61.2,42.8-60.2,72.3c0,0,1.5,21.9,10.7,35.3
					c0.4-5.9,25.4-57.8,61.1-73.7V90.8z"/>
				<path class="st3" d="M106.9,206.4l-4.5-6.5c-9.5-13.9-11.1-35.8-11.2-36.8V163c-0.6-17.7,2-42.2,17.9-58.6
					c10.7-11.1,25.9-16.7,45.1-16.7c4.1,0,8,0,11.7,0.1l2.8,0.1v38.5l-1.7,0.8c-35.4,15.8-59,66.8-59.4,71.3L106.9,206.4z M97,162.8
					c0.1,1,1.4,16.5,7.2,28.6c6.8-16.1,29-54.3,58.9-68.6V93.6c-2.8-0.1-5.7-0.1-8.7-0.1c-17.6,0-31.5,5-41,14.9
					C98.8,123.4,96.5,146.2,97,162.8z"/>
			</g>
			<g>
				<g>
					<path class="st2" d="M224.9,206.7l-0.6-8.2c-0.4-4.4-45.5-21.2-75.2-68.2c-4.7-7.5-16-31.1-9.6-38.3
						c33.3-17.6,72.6,1.5,83.3,12.5c15.9,16.4,18.5,40.9,17.9,58.6v0.1c-0.1,0.9-1.7,22.9-11.2,36.8L224.9,206.7z"/>
					<path class="st3" d="M223,214l-1-14.8c-1-1-4.6-3.2-8.1-5.4c-14.6-9-44.9-27.7-66.7-62.2c-0.2-0.3-18.5-30.9-9.4-41.3l0.3-0.3
						l0.4-0.2c34.7-18.4,75.2,1.6,86.3,13c16.5,17,19.2,42.3,18.6,60.4v0.1c-0.1,1-1.7,23.6-11.6,38L223,214z M141.2,93.9
						c-4.1,5.8,4.4,26,10.1,35c21.2,33.5,50.8,51.8,65.1,60.6c7.4,4.6,10.2,6.3,10.5,8.8l0.1,1.1l0.6-0.8
						c9.1-13.3,10.7-34.6,10.7-35.5l0,0c0.6-17.2-1.9-41-17.2-56.7c-5-5.2-17.2-12.5-32-16.3C176.8,86.7,158.7,84.9,141.2,93.9z"/>
				</g>
			</g>
			<g>
				<g>
					<path class="st3" d="M170.6,239.7c-10.5,2-20.9-2.3-26.8-11.2c-1.6-2.3,2.2-4.5,3.8-2.2c4.8,7.2,13.3,10.8,21.8,9.2
						C172.2,235,173.4,239.2,170.6,239.7L170.6,239.7z"/>
				</g>
			</g>
			<g>
				<g>
					<path class="st3" d="M130,175.6c4.5-6,13.9-4.9,17.4,1.4c1.4,2.5,5.1,0.3,3.8-2.2c-5.3-9.5-18.5-9.9-25-1.4
						C124.5,175.7,128.3,177.9,130,175.6L130,175.6z"/>
				</g>
			</g>
			<g>
				<g>
					<circle class="st3" cx="135.8" cy="189.4" r="5.9"/>
				</g>
			</g>
			<circle class="st3" cx="197.5" cy="189.5" r="5.9"/>
			<g>
				<path class="st4" d="M125.9,196.5c0,0,10.2-11.6,19.5-0.1C154.7,207.9,125.9,196.5,125.9,196.5z"/>
			</g>
			<g>
				<path class="st4" d="M187.3,196.5c0,0,10.2-11.6,19.5-0.1C216.2,207.9,187.3,196.5,187.3,196.5z"/>
			</g>
		</g>
	</g>
	<g class="st6">
		<defs>
			<circle id="SVGID_5_" cx="168.5" cy="168.5" r="168"/>
		</defs>
		<clipPath id="SVGID_6_" class="st7">
			<use xlink:href="#SVGID_5_"  style="overflow:visible;"/>
		</clipPath>
		<rect x="-25.5" y="-12.3" class="st8" width="380.5" height="380.5"/>
	</g>
</g>
</svg>
