<?xml version="1.0" encoding="utf-8"?>
<!-- Generator: Adobe Illustrator 21.1.0, SVG Export Plug-In . SVG Version: 6.00 Build 0)  -->
<svg version="1.1" id="Layer_1" xmlns="http://www.w3.org/2000/svg" xmlns:xlink="http://www.w3.org/1999/xlink" x="0px" y="0px"
	 viewBox="0 0 337 337" style="enable-background:new 0 0 337 337;" xml:space="preserve">
<style type="text/css">
	.st0{clip-path:url(#SVGID_2_);fill:#AC6A00;}
	.st1{clip-path:url(#SVGID_4_);}
	.st2{fill:#F7A625;}
	.st3{fill:#6B5231;}
	.st4{fill:#FFFFFF;}
	.st5{fill:#FFE6BE;}
	.st6{display:none;}
	.st7{display:inline;}
	.st8{display:inline;opacity:0.48;clip-path:url(#SVGID_6_);fill:#ED9C1B;enable-background:new    ;}
</style>
<g>
	<g>
		<defs>
			<circle id="SVGID_1_" cx="168.5" cy="168.5" r="168"/>
		</defs>
		<clipPath id="SVGID_2_">
			<use xlink:href="#SVGID_1_"  style="overflow:visible;"/>
		</clipPath>
		<rect x="-18.1" y="-22.9" class="st0" width="380.5" height="380.5"/>
	</g>
	<g>
		<defs>
			<circle id="SVGID_3_" cx="168.5" cy="168.5" r="168"/>
		</defs>
		<clipPath id="SVGID_4_">
			<use xlink:href="#SVGID_3_"  style="overflow:visible;"/>
		</clipPath>
		<g class="st1">
			<g>
				<polygon class="st2" points="116.4,254.4 120.2,269 216.3,267.5 218.6,251.8 229.8,267.3 238.9,267.1 229.7,159.5 103.3,158 
					98.4,269.3 113,269.1 				"/>
				<path class="st3" d="M95.3,272.3l5.1-117.3l132,1.6l9.7,113.5l-13.8,0.2l-7.8-10.8l-1.6,10.9L118,272l-1.4-5.2l-1.2,5.2
					L95.3,272.3z M106.1,161l-4.6,105.3l9.1-0.1l5.6-24.2l6.3,24l91.2-1.4l2.9-20.5l14.6,20.2l4.3-0.1L227,162.5L106.1,161z"/>
			</g>
			<g>
				<path class="st4" d="M91.5,339.2V315c0-27.4,37.3-49.8,63.5-49.8h33.4c26.2,0,63.1,22.4,63.1,49.8v24.2H91.5z"/>
				<path class="st3" d="M254.4,342.1H88.6V315c0-13.5,8.2-26.8,23.1-37.5c13.1-9.4,29.6-15.2,43.3-15.2h33.4
					c13.6,0,30.1,5.8,43.1,15.2c14.8,10.7,22.9,24,22.9,37.5V342.1z M94.4,336.2h154.2V315c0-11.4-7.5-23.4-20.5-32.8
					c-12-8.7-27.2-14.1-39.7-14.1H155c-23.9,0-60.6,21-60.6,46.8V336.2z"/>
			</g>
			<g>
				<path class="st4" d="M109.4,205.6L109.4,205.6c-6.8,0-12.4-5.6-12.4-12.4v-10.3c0-6.8,5.6-12.4,12.4-12.4l0,0
					c6.8,0,12.4,5.6,12.4,12.4v10.3C121.8,200,116.2,205.6,109.4,205.6z"/>
				<path class="st3" d="M109.4,208.5c-8.4,0-15.3-6.9-15.3-15.3v-10.3c0-8.4,6.9-15.3,15.3-15.3s15.3,6.9,15.3,15.3v10.3
					C124.7,201.6,117.8,208.5,109.4,208.5z M109.4,173.4c-5.2,0-9.5,4.2-9.5,9.5v10.3c0,5.2,4.2,9.5,9.5,9.5s9.5-4.2,9.5-9.5v-10.3
					C118.9,177.7,114.6,173.4,109.4,173.4z"/>
			</g>
			<g>
				<path class="st4" d="M226.6,205.6L226.6,205.6c-6.8,0-12.4-5.6-12.4-12.4v-10.3c0-6.8,5.6-12.4,12.4-12.4l0,0
					c6.8,0,12.4,5.6,12.4,12.4v10.3C239,200,233.4,205.6,226.6,205.6z"/>
				<path class="st3" d="M226.6,208.5c-8.4,0-15.3-6.9-15.3-15.3v-10.3c0-8.4,6.9-15.3,15.3-15.3s15.3,6.9,15.3,15.3v10.3
					C241.9,201.6,235.1,208.5,226.6,208.5z M226.6,173.4c-5.2,0-9.5,4.2-9.5,9.5v10.3c0,5.2,4.2,9.5,9.5,9.5c5.2,0,9.5-4.2,9.5-9.5
					v-10.3C236.1,177.7,231.8,173.4,226.6,173.4z"/>
			</g>
			<g>
				<path class="st4" d="M185.7,279.5c0,7.6-7.8,38.7-16.7,38.5c-8.4-0.2-18.1-31.4-18.1-38.5v-59h34.9L185.7,279.5L185.7,279.5z"/>
				<path class="st3" d="M169,320.8c-0.1,0-0.1,0-0.2,0c-11.7-0.3-20.8-35-20.8-41.3v-61.8h40.4v61.8c0,6.3-5.4,30.7-13.5,38.5
					C173.1,319.9,171.1,320.8,169,320.8z M153.6,223.3v56.2c0,3.1,2.3,12.4,5.7,20.8c4.7,11.7,8.4,14.9,9.7,14.9
					c0.5,0,1.3-0.4,2.1-1.2c6.2-6,11.8-28.1,11.8-34.6v-56.2h-29.3V223.3z"/>
			</g>
			<g>
				<path class="st4" d="M168,253.4L168,253.4c-32.2,0-58.6-26.4-58.6-58.6v-47.5c0-32.2,26.4-58.6,58.6-58.6l0,0
					c32.2,0,58.6,26.4,58.6,58.6v47.5C226.6,227,200.3,253.4,168,253.4z"/>
				<path class="st3" d="M168,256.3c-33.9,0-61.5-27.6-61.5-61.5v-47.5c0-33.9,27.6-61.5,61.5-61.5s61.5,27.6,61.5,61.5v47.5
					C229.5,228.7,201.9,256.3,168,256.3z M168,91.5c-30.7,0-55.7,25-55.7,55.7v47.5c0,30.7,25,55.7,55.7,55.7s55.7-25,55.7-55.7
					v-47.5C223.7,116.5,198.7,91.5,168,91.5z"/>
			</g>
			<g>
				<g>
					<path class="st3" d="M161.6,201.2c1.4,2.8,4.2,4.2,7.3,3.9c2.8-0.3,4.3-2,5.4-4.4c0.9-2.1-2.1-3.9-3.1-1.8
						c-0.5,1.2-1,2.4-2.4,2.7c-1.9,0.4-3.4-0.5-4.2-2.2C163.7,197.3,160.6,199.1,161.6,201.2L161.6,201.2z"/>
				</g>
			</g>
			<g>
				<rect x="153.7" y="242.2" class="st4" width="29.2" height="23"/>
			</g>
			<g>
				<g>
					<path class="st3" d="M152.7,220.7c1.2,7.7,8.6,12.2,16,12.1c8.1-0.1,14-5.4,14.7-13.5c0.2-2.8-4.1-2.8-4.4,0
						c-1.1,12.3-20.3,11.8-22.1,0.2C156.5,216.7,152.3,217.9,152.7,220.7L152.7,220.7z"/>
				</g>
			</g>
			<g>
				<g>
					<path class="st3" d="M120,177.7c5.6-8.3,16.3-12.1,26-9.8c2.1,0.5,3-2.7,0.9-3.2c-11.2-2.6-23.3,1.8-29.8,11.3
						C115.9,177.8,118.8,179.5,120,177.7L120,177.7z"/>
				</g>
			</g>
			<g>
				<g>
					<path class="st3" d="M216.9,175.2c-7-9.2-19.3-13-30.4-9.7c-2.1,0.6-1.2,3.9,0.9,3.2c9.5-2.8,20.4,0.1,26.6,8.1
						C215.3,178.6,218.2,176.9,216.9,175.2L216.9,175.2z"/>
				</g>
			</g>
			<g>
				<path class="st2" d="M143.3,86.7c-2.8,0.4-6,1-9.7,1.9c-50,11.8-27.1,81.9-27.1,81.9c24.5-6.5,34.6-34.9,38.5-51.4
					c8.7,18.2,31.1,41.3,87.5,56.8C246.7,86.3,169.8,53.5,143.3,86.7z"/>
				<path class="st3" d="M234.9,179.6l-3.1-0.9c-51.7-14.2-75.2-35-85.8-51.9c-5.1,17.2-16.1,40.5-38.7,46.5l-2.7,0.7l-0.9-2.6
					c-0.5-1.6-12.8-40,1.5-65.6c5.8-10.3,15.1-17.1,27.7-20c3.2-0.8,6.2-1.4,8.8-1.8c11.5-13.5,31.4-16.8,51-8.1
					C218,87,244.3,120,235.4,176.3L234.9,179.6z M144.1,110.3l3.6,7.5c7.8,16.3,28.4,38.9,82.5,54.4c6.9-51.1-16.9-80.9-39.8-91
					c-17.5-7.7-35.1-4.8-44.8,7.3l-0.7,0.9l-1.1,0.2c-2.7,0.4-5.9,1-9.4,1.9c-10.9,2.6-19,8.4-24,17.2c-11,19.6-4.3,49.1-1.9,58.2
					c21.1-7.5,30.1-33.3,33.7-48.4L144.1,110.3z"/>
			</g>
			<g>
				<rect x="141.3" y="277.4" class="st4" width="54.7" height="49.5"/>
			</g>
			<g>
				<path class="st2" d="M214.3,272.3v22.1l-44,21.2l-44-21.2v-22.1c0,0-7.1,2.7-14.4,8.6v58.2h14.4h87.9h14.4v-58.2
					C221.4,275,214.3,272.3,214.3,272.3z"/>
				<path class="st3" d="M231.4,341.9H109.2v-62.3l1-0.8c7.5-6.1,14.8-8.9,15.1-9.1l3.7-1.4v24.4l41.2,19.9l41.2-19.9v-24.4l3.7,1.4
					c0.3,0.1,7.6,3,15.1,9.1l1,0.8v62.3H231.4z M114.7,336.4h111.2v-54.2c-3.3-2.6-6.5-4.4-8.9-5.7V296l-46.7,22.6L123.6,296v-19.5
					c-2.4,1.2-5.6,3.1-8.9,5.7C114.7,282.2,114.7,336.4,114.7,336.4z"/>
			</g>
			<g>
				<g>
					<circle class="st3" cx="136" cy="181.8" r="5.9"/>
				</g>
			</g>
			<g>
				<g>
					<circle class="st3" cx="197.7" cy="182" r="5.9"/>
				</g>
			</g>
			<g>
				<path class="st4" d="M125.7,190c0,0,10.2-11.6,19.5-0.1S125.7,190,125.7,190z"/>
			</g>
			<g>
				<path class="st4" d="M187.1,190c0,0,10.2-11.6,19.5-0.1C215.9,201.4,187.1,190,187.1,190z"/>
			</g>
			<g>
				<g>
					<circle class="st5" cx="125.7" cy="200" r="8"/>
				</g>
			</g>
			<g>
				<g>
					<circle class="st5" cx="208.5" cy="200" r="8"/>
				</g>
			</g>
		</g>
	</g>
	<g class="st6">
		<defs>
			<circle id="SVGID_5_" cx="168.5" cy="168.5" r="168"/>
		</defs>
		<clipPath id="SVGID_6_" class="st7">
			<use xlink:href="#SVGID_5_"  style="overflow:visible;"/>
		</clipPath>
		<rect x="-25.5" y="-20.6" class="st8" width="380.5" height="380.5"/>
	</g>
</g>
</svg>
