<?xml version="1.0" encoding="utf-8"?>
<!-- Generator: Adobe Illustrator 19.2.1, SVG Export Plug-In . SVG Version: 6.00 Build 0)  -->
<svg version="1.1" xmlns="http://www.w3.org/2000/svg" xmlns:xlink="http://www.w3.org/1999/xlink" x="0px" y="0px"
	 viewBox="0 0 353.3 353.3" style="enable-background:new 0 0 353.3 353.3;" xml:space="preserve">
<style type="text/css">
	.st0{fill:#EF3B3A;}
	.st1{fill:#FFFFFF;}
	.st2{display:none;}
	.st3{display:inline;fill:#EF3B3A;}
	.st4{display:inline;fill:#FFFFFF;}
	.st5{font-family:'BlackJack';}
	.st6{font-size:33px;}
	.st7{font-family:'ABeeZee-Regular';}
	.st8{font-family:'QuigleyWiggly';}
	.st9{font-size:44.929px;}
	.st10{fill:none;stroke:#FFFFFF;stroke-width:3;stroke-miterlimit:10;}
</style>
<g id="Layer_1">
	<g>
		<circle class="st0" cx="176.7" cy="176.7" r="176.7"/>
		<g>
			<path class="st1" d="M110.3,124.8v-0.5c-3.8-2.7-5.9-6.9-5.9-8.7c0-1.5,1.9-3.3,3.7-3.3c2.4,0,4.4,5.1,4.9,10
				c1.5,1.2,3.5,2,5.5,2c2,0,2.9-0.6,2.9-0.6s-0.1,3.3-3.6,3.3c-1.6,0-3.3-0.4-4.6-0.9c-0.5,17.2-9.2,38.5-18.2,38.5
				c-8.1,0-9.5-10.8-7.8-21.3c-5.3,9.5-12.5,20.2-17.3,20.2c-13.8,0-0.9-42.7,7.1-42.7c3.5,0.5,4.1,5.1-0.8,8.2
				c-2.9,7.6-7.2,20.4-7.2,27.5c0,2.5,0.6,3.9,1.9,3.9c5.3,0,20.2-30.4,20.2-30.4c1.5-3.1,3.2-5.1,4.6-5.1c1.4,0,1.9,0.6,1.9,1.9
				c0,0-5.5,19-5.5,29.7c0,3,0.9,5,2.9,5C101.7,161.5,110.3,142.5,110.3,124.8z"/>
			<path class="st1" d="M133,161c6.9,0,15.4-17.9,15.4-35.4v-1.1c-4.1-2.6-6.5-7-6.5-8.8c0-1.2,1.7-3.3,3.5-3.3
				c2.5,0,4.8,5.2,5.6,10.1c1.6,1.1,3.5,1.9,5.5,1.9c1.8,0,2.9-0.7,2.9-0.7s0,3.3-3.3,3.3c-1.8,0-3.4-0.4-4.8-0.9
				c-0.2,17.4-8.7,38.3-19.4,38.3c-20.3,0-9.5-43.5,6.4-43.5c2.5,0,2.8,2.2,2.8,2.2C129.1,122.9,121.3,161,133,161z"/>
			<path class="st1" d="M184.9,124.1c0.3-1-0.7-1.1-1.7-0.3c-8.8,7.5-19.4,35.8-19.4,37.8c0,0.5-0.5,1.1-1.3,1.1
				c-2.2,0-2.8-2.3-2.8-7.2c0-17.4,3.9-35.5,9.4-35.5c1.1,0,1.7,0.7,1.7,1.9c0,0-4.2,13.2-6,27.1h0.8c5-12.5,13.5-30,22.1-30
				c2.9,0,4.4,1.7,4.4,4.3c0,0-4.3,12.7-6.2,25.1h0.7c5-10.5,13.5-25.8,20.5-25.8c2.8,0,4.4,1.5,4.4,4.2c0,0-4.7,15.7-4.7,30.6
				c0,7.2,1.1,9.6,2.9,9.6c1.8,0,2.5-1.7,3.4-1.7s0.5,0.9,0.5,0.9s-1.9,3.9-4.6,3.9c-4.8,0-7.5-7.5-7.5-17.8
				c0-11.5,1.7-20.2,2.9-24.4c0.2-0.8-0.7-0.8-1.5-0.1c-8,6.8-17.9,28.9-17.9,30.7c0,0.5-0.5,1.1-1.3,1.1c-2.2,0-2.8-2.3-2.8-7.2
				C180.8,140.1,183.9,128.3,184.9,124.1z"/>
			<path class="st1" d="M242,121.6c-13.7,0-24.6,41.5-9.3,41.5c6.5,0,10.4-7.5,10.4-7.5s0.4-0.7,1.7-0.7s1.1,0.7,1.1,0.7
				s-5.1,10.6-14,10.6c-24.3,0-11.2-47,10.7-47c13.3,0,6.1,26.3-10.2,26.3c-3,0-3.6-1.8-3.6-1.8C240.8,143.8,249.9,121.6,242,121.6z
				"/>
			<path class="st1" d="M279,124.3c-9.6,8.5-19.4,34.9-19.4,36.5c0,0.5-0.5,1.1-1.3,1.1c-2.2,0-2.9-2.3-2.9-7.2
				c0-17.4,4-35.5,9.5-35.5c1.1,0,1.6,0.7,1.6,2c0,0-4.2,13.5-6,27.5h0.8c4.8-12.1,13.3-29,22.8-29c3.3,0,4.6,1.7,4.6,4.5
				c0,0-4.1,18.4-6,33.2c-0.7,5.8,0.3,9,4.3,10.7c14.7,6.2,67.1-4.8,68-4.8s15.2-2.9,15.2-2.9s-38.9,14.7-78.4,13
				c-2.7-0.1-9-0.8-12.7-3.9c-2.4-2-3-5.2-1.7-17.1c0.5-4.3,2.8-23.7,3.9-27.5C281.7,123.5,280.5,123.1,279,124.3z"/>
		</g>
		<g>
			<path class="st1" d="M112.5,227.2c0,8.1-2.4,14.4-7.2,18.8c-4.3,4-10,6-17,6c-7.8,0-14-2.3-18.5-7c-4.9-4.9-7.3-12-7.3-21.2v-8.2
				c0-9.2,2.4-16.2,7.3-21.2c4.6-4.6,10.7-7,18.5-7c7.1,0,12.9,2.1,17.2,6.2c4.7,4.4,7,10.6,7,18.8h-9c0-5.6-1.4-9.9-4.3-12.9
				c-2.6-2.6-6.3-3.9-11-3.9c-8.1,0-13.2,3.6-15.6,10.9c-0.9,2.6-1.3,5.6-1.3,9.2v8.2c0,10.1,3.3,16.4,10,18.9
				c2.1,0.8,4.3,1.2,6.7,1.2s4.5-0.3,6.5-1s3.6-1.6,4.9-3c3-3,4.5-7.2,4.5-12.7H112.5z"/>
			<path class="st1" d="M175,223.8c0,9.2-2.5,16.2-7.6,21.2c-4.8,4.6-10.9,7-18.4,7c-7.5,0-13.6-2.3-18.4-7
				c-5.1-5-7.6-12.1-7.6-21.2v-8.2c0-9.2,2.5-16.2,7.6-21.2c4.8-4.6,10.9-7,18.4-7c7.5,0,13.6,2.3,18.4,7c5.1,5,7.6,12.1,7.6,21.2
				V223.8z M166,215.6c0-10.1-3.4-16.4-10.2-18.9c-2.1-0.8-4.4-1.2-6.9-1.2c-2.5,0-4.8,0.4-6.9,1.1c-2.1,0.8-3.8,1.9-5.3,3.5
				c-3.2,3.4-4.9,8.5-4.9,15.4v8.2c0,10.1,3.4,16.4,10.2,18.9c2.1,0.8,4.4,1.2,6.9,1.2c2.4,0,4.7-0.4,6.8-1.1
				c2.1-0.8,3.9-1.9,5.4-3.5c3.2-3.4,4.9-8.5,4.9-15.4V215.6z"/>
			<path class="st1" d="M189,251.1v-62.8h21.8c7.6,0,13.7,2.3,18.3,7c5.1,5,7.7,12.1,7.7,21.2v6.4c0,9.2-2.6,16.2-7.7,21.2
				c-4.6,4.6-10.7,7-18.3,7H189z M210.8,243c8.1,0,13.3-3.6,15.7-10.9c0.9-2.5,1.3-5.6,1.3-9.2v-6.4c0-10.1-3.4-16.4-10.2-18.9
				c-2.1-0.8-4.3-1.2-6.8-1.2h-12.8V243H210.8z"/>
			<path class="st1" d="M250.7,251.1v-62.8h41.2l-1.2,8.1h-31V215h28.1v8.1h-28.1V243h31.6l1.3,8.1H250.7z"/>
		</g>
	</g>
	<g class="st2">
		<circle class="st3" cx="172.3" cy="217.6" r="64.7"/>
		<text transform="matrix(1 0 0 1 131.9023 212.7474)" class="st4 st5 st6">women</text>
		<text transform="matrix(1 0 0 1 130.5659 243.8355)" class="st4 st7 st6">CODE</text>
	</g>
	<g class="st2">
		<circle class="st3" cx="172.3" cy="367" r="64.7"/>
		<text transform="matrix(1 0 0 1 127.0808 365.9337)" class="st4 st8 st9">women</text>
		
			<text transform="matrix(1 0 0 1 125.968 393.2521)" class="st4" style="font-family:'CourierPrimeCode-Regular'; font-size:39.1962px;">CODE</text>
	</g>
	<path class="st1" d="M-26,144"/>
	<path class="st1" d="M-15,140.3"/>
	<path class="st10" d="M-12,142.9c-2.2,1.6,31.9,6.9,85.7-14.9"/>
</g>
<g id="Layer_2">
</g>
</svg>
